<svg xmlns="http://www.w3.org/2000/svg" enable-background="new 0 0 26 26" viewBox="0 0 26 26" id="arrow-back"><circle cx="21.5" cy="13" r="1.5" fill="#fec107"></circle><path fill="#465a65" d="M17.5,11.5H7.5900269l1.9699707-1.9700317c0.5800171-0.5899658,0.5800171-1.539978,0-2.1199951
		c-0.5900269-0.5899658-1.539978-0.5899658-2.1199951,0l-3.6300049,3.6199951c-1.0800171,1.0900269-1.0800171,2.8500366,0,3.9400024
		l3.6300049,3.6199951C7.7299805,18.8800049,8.1099854,19.0299683,8.5,19.0299683
		c0.3800049,0,0.7600098-0.1499634,1.0599976-0.4400024c0.5800171-0.5799561,0.5800171-1.5299683,0-2.1199951L7.5900269,14.5H17.5
		c0.8300171,0,1.5-0.6700439,1.5-1.5C19,12.1699829,18.3300171,11.5,17.5,11.5z"></path></svg>