<?xml version="1.0" encoding="utf-8"?>
<!-- Generator: Adobe Illustrator 26.5.0, SVG Export Plug-In . SVG Version: 6.00 Build 0)  -->
<svg version="1.1" id="Слой_1" xmlns="http://www.w3.org/2000/svg" xmlns:xlink="http://www.w3.org/1999/xlink" x="0px" y="0px"
	 viewBox="0 0 1210.2 746" style="enable-background:new 0 0 1210.2 746;" xml:space="preserve">
<style type="text/css">
	.st0{fill:none;stroke:#000000;stroke-width:5;stroke-miterlimit:10;}
	.st1{fill:none;stroke:#000000;stroke-width:3;stroke-miterlimit:10;}
	.st2{fill:none;stroke:#000000;stroke-miterlimit:10;}
	.st3{fill:none;stroke:#000000;stroke-width:2.8646;stroke-miterlimit:10;}
	.st4{fill:none;stroke:#000000;stroke-width:2;stroke-miterlimit:10;}
</style>
<rect x="495.6" y="278.9" class="st0" width="353.6" height="116.9"/>
<rect x="630.5" y="456" class="st1" width="117.8" height="178.6"/>
<rect x="398.5" y="130" class="st1" width="178.6" height="113.3"/>
<rect x="128.5" y="452.2" class="st1" width="457.5" height="178.6"/>
<rect x="1007.8" y="120.1" class="st0" width="83" height="101.9"/>
<g>
	<g>
		<g>
			<rect x="929.9" y="120.1" class="st0" width="56" height="101.9"/>
		</g>
	</g>
</g>
<rect x="689.4" y="112.8" class="st0" width="133.9" height="133.9"/>
<rect x="128.5" y="144.7" class="st2" width="205.8" height="232.1"/>
<rect x="128.5" y="144.7" class="st1" width="205.8" height="232.1"/>
<polygon class="st3" points="1053.9,359 1053.9,620.2 792.7,620.2 792.7,493.9 927.6,493.9 927.6,359 "/>
<rect x="222.1" y="376.8" class="st4" width="18.5" height="76.5"/>
<rect x="524.7" y="395.7" class="st4" width="18.5" height="56.5"/>
<rect x="680.1" y="395.7" class="st4" width="18.5" height="60.3"/>
<rect x="817" y="395.7" class="st4" width="18.5" height="98.2"/>
<polygon class="st4" points="967.2,222.1 967.2,334.4 849.2,334.4 849.2,315.9 948.7,315.9 948.7,222.1 "/>
<rect x="985.9" y="161.9" class="st4" width="21.9" height="18.5"/>
<polygon class="st4" points="689.4,177.4 689.4,195.9 642.5,195.9 642.5,278.9 624,278.9 624,195.9 577.2,195.9 577.2,177.4 "/>
</svg>
